4d546864000000060001000300604d54726b0000009000ff0120596f6b6f736f2050726f6a6563742868747470733a2f2f796f6b6f2e736f2f2900ff510307a12000f00a4110421240007f0041f78140c00101b00a40015b00813eff510304d18d00903c4030803c0000903e4030803e000090404030804000009041403080410000904340308043000090454030804500009047403080470000904840811080480030ff2f004d54726b000000518140c00101b00a40015b00813e903040308030000090324030803200009034403080340000903540308035000090374030803700009039403080390000903b4030803b0000903c408110803c0030ff2f004d54726b000000518140c00101b00a40015b00813e9048403080480000904a4030804a0000904c4030804c0000904d4030804d0000904f4030804f000090514030805100009053403080530000905440811080540030ff2f00
