warning: field `channel` is never read
 --> src/track_builder.rs:4:5
  |
3 | pub struct TrackBuilder {
  |            ------------ field in this struct
4 |     channel: u8,
  |     ^^^^^^^
  |
  = note: `#[warn(dead_code)]` on by default

warning: constant `MIN_VOLUME` is never used
 --> src/mf2tt2mf.rs:6:7
  |
6 | const MIN_VOLUME: u8 = 1;
  |       ^^^^^^^^^^

warning: constant `MAX_VOLUME` is never used
 --> src/mf2tt2mf.rs:7:7
  |
7 | const MAX_VOLUME: u8 = 15;
  |       ^^^^^^^^^^

warning: constant `MAX_OCTAVE` is never used
 --> src/mf2tt2mf.rs:8:7
  |
8 | const MAX_OCTAVE: u8 = 9;
  |       ^^^^^^^^^^

warning: `yks_converter` (lib) generated 4 warnings
    Finished `release` profile [optimized] target(s) in 0.00s
     Running `target/release/test_baseline`
=== YKSConverter Rust Baseline Tests ===
Test 1: Simple single track
Generated: test1_simple_single_rust.midi (size: 214 bytes)
Test1_Rust hex dump:
4d 54 68 64 00 00 00 06 00 01 00 03 00 60 4d 54 
72 6b 00 00 00 90 00 ff 01 20 59 6f 6b 6f 73 6f 
20 50 72 6f 6a 65 63 74 28 68 74 74 70 73 3a 2f 
2f 79 6f 6b 6f 2e 73 6f 2f 29 00 ff 51 03 07 a1 
20 00 f0 0a 41 10 42 12 40 00 7f 00 41 f7 81 40 
c0 01 01 b0 0a 40 01 5b 00 81 3e ff 51 03 07 a1 
20 00 90 3c 40 60 80 3c 00 00 90 3e 40 60 80 3e 
00 00 90 40 40 60 80 40 00 00 90 41 40 60 80 41 
00 00 90 43 40 60 80 43 00 00 90 45 40 60 80 45 
00 00 90 47 40 60 80 47 00 00 90 48 40 81 10 80 
48 00 60 ff 2f 00 4d 54 72 6b 00 00 00 10 81 40 
c0 01 01 b0 0a 40 01 5b 00 81 3f ff 2f 00 4d 54 
72 6b 00 00 00 10 81 40 c0 01 01 b0 0a 40 01 5b 
00 81 3f ff 2f 00 

Test 2: Multi-track ensemble
Generated: test2_multi_track_rust.midi (size: 564 bytes)
Test2_Rust hex dump:
4d 54 68 64 00 00 00 06 00 01 00 06 00 60 4d 54 
72 6b 00 00 00 87 00 ff 01 20 59 6f 6b 6f 73 6f 
20 50 72 6f 6a 65 63 74 28 68 74 74 70 73 3a 2f 
2f 79 6f 6b 6f 2e 73 6f 2f 29 00 ff 51 03 07 a1 
20 00 f0 0a 41 10 42 12 40 00 7f 00 41 f7 81 40 
c0 1a 01 b0 0a 40 01 5b 00 81 3e ff 51 03 05 16 
15 00 90 3c 40 30 80 3c 00 00 90 3c 40 30 80 3c 
00 00 90 3c 40 30 80 3c 00 00 90 3c 40 30 80 3c 
00 00 90 3c 40 30 80 3c 00 00 90 3c 40 30 80 3c 
00 00 90 3c 40 60 80 3c 00 30 ff 2f 00 4d 54 72 
6b 00 00 00 48 81 40 c0 1a 01 b0 0a 40 01 5b 00 
81 3e 90 40 40 30 80 40 00 00 90 40 40 30 80 40 
00 00 90 40 40 30 80 40 00 00 90 40 40 30 80 40 
00 00 90 40 40 30 80 40 00 00 90 40 40 30 80 40 
00 00 90 40 40 60 80 40 00 30 ff 2f 00 4d 54 72 
6b 00 00 00 48 81 40 c0 1a 01 b0 0a 40 01 5b 00 
81 3e 90 43 40 30 80 43 00 00 90 43 40 30 80 43 
00 00 90 43 40 30 80 43 00 00 90 43 40 30 80 43 
00 00 90 43 40 30 80 43 00 00 90 43 40 30 80 43 
00 00 90 43 40 60 80 43 00 30 ff 2f 00 4d 54 72 
6b 00 00 00 4f 81 40 c1 4a 01 b1 0a 40 01 5b 00 
81 3e ff 51 03 05 16 15 00 91 48 40 30 81 48 00 
00 91 48 40 30 81 48 00 00 91 48 40 30 81 48 00 
00 91 48 40 30 81 48 00 00 91 48 40 30 81 48 00 
00 91 48 40 30 81 48 00 00 91 48 40 60 81 48 00 
30 ff 2f 00 4d 54 72 6b 00 00 00 48 81 40 c1 4a 
01 b1 0a 40 01 5b 00 81 3e 91 4c 40 30 81 4c 00 
00 91 4c 40 30 81 4c 00 00 91 4c 40 30 81 4c 00 
00 91 4c 40 30 81 4c 00 00 91 4c 40 30 81 4c 00 
00 91 4c 40 30 81 4c 00 00 91 4c 40 60 81 4c 00 
30 ff 2f 00 4d 54 72 6b 00 00 00 48 81 40 c1 4a 
01 b1 0a 40 01 5b 00 81 3e 91 4f 40 30 81 4f 00 
00 91 4f 40 30 81 4f 00 00 91 4f 40 30 81 4f 00 
00 91 4f 40 30 81 4f 00 00 91 4f 40 30 81 4f 00 
00 91 4f 40 30 81 4f 00 00 91 4f 40 60 81 4f 00 
30 ff 2f 00 

Test 3: README example
Generated: test3_readme_example_rust.midi (size: 344 bytes)
Test3_Rust hex dump:
4d 54 68 64 00 00 00 06 00 01 00 03 00 60 4d 54 
72 6b 00 00 00 90 00 ff 01 20 59 6f 6b 6f 73 6f 
20 50 72 6f 6a 65 63 74 28 68 74 74 70 73 3a 2f 
2f 79 6f 6b 6f 2e 73 6f 2f 29 00 ff 51 03 07 a1 
20 00 f0 0a 41 10 42 12 40 00 7f 00 41 f7 81 40 
c0 01 01 b0 0a 40 01 5b 00 81 3e ff 51 03 04 d1 
8d 00 90 3c 40 30 80 3c 00 00 90 3e 40 30 80 3e 
00 00 90 40 40 30 80 40 00 00 90 41 40 30 80 41 
00 00 90 43 40 30 80 43 00 00 90 45 40 30 80 45 
00 00 90 47 40 30 80 47 00 00 90 48 40 81 10 80 
48 00 30 ff 2f 00 4d 54 72 6b 00 00 00 51 81 40 
c0 01 01 b0 0a 40 01 5b 00 81 3e 90 30 40 30 80 
30 00 00 90 32 40 30 80 32 00 00 90 34 40 30 80 
34 00 00 90 35 40 30 80 35 00 00 90 37 40 30 80 
37 00 00 90 39 40 30 80 39 00 00 90 3b 40 30 80 
3b 00 00 90 3c 40 81 10 80 3c 00 30 ff 2f 00 4d 
54 72 6b 00 00 00 51 81 40 c0 01 01 b0 0a 40 01 
5b 00 81 3e 90 48 40 30 80 48 00 00 90 4a 40 30 
80 4a 00 00 90 4c 40 30 80 4c 00 00 90 4d 40 30 
80 4d 00 00 90 4f 40 30 80 4f 00 00 90 51 40 30 
80 51 00 00 90 53 40 30 80 53 00 00 90 54 40 81 
10 80 54 00 30 ff 2f 00 

Test 4: Edge case with empty tracks
Generated: test4_empty_tracks_rust.midi (size: 173 bytes)
Test4_Rust hex dump:
4d 54 68 64 00 00 00 06 00 01 00 03 00 60 4d 54 
72 6b 00 00 00 67 00 ff 01 20 59 6f 6b 6f 73 6f 
20 50 72 6f 6a 65 63 74 28 68 74 74 70 73 3a 2f 
2f 79 6f 6b 6f 2e 73 6f 2f 29 00 ff 51 03 07 a1 
20 00 f0 0a 41 10 42 12 40 00 7f 00 41 f7 81 40 
c0 01 01 b0 0a 40 01 5b 00 81 3e ff 51 03 07 a1 
20 00 90 3c 40 60 80 3c 00 00 90 3e 40 60 80 3e 
00 00 90 40 40 60 80 40 00 60 ff 2f 00 4d 54 72 
6b 00 00 00 10 81 40 c0 01 01 b0 0a 40 01 5b 00 
81 3f ff 2f 00 4d 54 72 6b 00 00 00 10 81 40 c0 
01 01 b0 0a 40 01 5b 00 81 3f ff 2f 00 

=== Rust baseline tests completed ===
